<svg width="156" height="162" viewBox="0 0 156 162" fill="none" xmlns="http://www.w3.org/2000/svg">
<path fill-rule="evenodd" clip-rule="evenodd" d="M0.725659 103.625C-2.35627 79.1846 24.4256 73.9271 43.5029 69.5C43.5029 69.5 60.753 81 78.0028 81C95.2525 81 112.503 69.5 112.503 69.5C131.619 73.9183 158.684 79.2339 155.222 103.819C145.384 137.164 114.535 161.5 78.0025 161.5C41.399 161.5 10.5015 137.07 0.725659 103.625ZM61.6678 123.329C63.2517 125.013 63.2517 127.539 61.6678 129.224C60.8759 130.066 59.8859 130.487 58.896 130.487C57.906 130.487 56.9161 130.066 56.1241 129.224L46.0267 118.487C44.4428 116.803 44.4428 114.276 46.0267 112.592L56.1241 101.855C57.7081 100.171 60.0839 100.171 61.6678 101.855C63.2517 103.539 63.2517 106.276 61.6678 107.961L54.3422 115.75L61.6678 123.329ZM88.1983 95.9605L77.111 137.855C76.715 139.75 75.1311 141.013 73.3492 141.013C73.1512 141.013 72.7552 141.013 72.3592 140.803C70.1813 140.171 68.9934 137.855 69.5874 135.539L80.6747 93.6447C81.2687 91.3289 83.4466 90.0658 85.6245 90.6974C87.6044 91.3289 88.7923 93.6447 88.1983 95.9605ZM110.175 118.697L100.078 129.434C99.2857 130.276 98.2958 130.697 97.3058 130.697C96.3159 130.697 95.3259 130.276 94.534 129.434C92.9501 127.75 92.9501 125.224 94.534 123.539L101.86 115.75L94.534 107.75C92.9501 106.066 92.9501 103.539 94.534 101.855C96.1179 100.171 98.4938 100.171 100.078 101.855L110.175 112.803C111.759 114.487 111.759 117.013 110.175 118.697Z" fill="#62626A"/>
<path d="M78.0305 0.500005C96.9248 0.515075 112.503 15.9512 112.503 34.9023C112.503 54.0581 96.9095 69.5 78.0028 69.5C59.096 69.5 43.5028 54.0581 43.5028 35.0977C43.5028 15.9419 59.096 0.5 78.0028 0.5" fill="#62626A"/>
</svg>
