<svg width="594" height="818" viewBox="0 0 594 818" fill="none" xmlns="http://www.w3.org/2000/svg">
<mask id="path-1-inside-1_3_8278" fill="white">
<path d="M203.801 -1.53427e-05C297.401 -1.12513e-05 385.385 42.5851 451.841 119.799C518.297 197.013 554.801 299.497 554.801 409.001C554.801 518.504 518.297 620.987 451.841 698.201C385.385 775.415 297.401 818 203.801 818"/>
</mask>
<path d="M203.801 4.99998C295.801 4.99999 382.447 46.8363 448.051 123.061L455.63 116.537C388.323 38.334 299.001 -5.00001 203.801 -5.00002L203.801 4.99998ZM448.051 123.061C513.666 199.297 549.801 300.598 549.801 409.001L559.801 409.001C559.801 298.396 522.928 194.729 455.63 116.537L448.051 123.061ZM549.801 409.001C549.801 517.403 513.666 618.703 448.051 694.939L455.63 701.463C522.928 623.271 559.801 519.605 559.801 409.001L549.801 409.001ZM448.051 694.939C382.447 771.164 295.801 813 203.801 813L203.801 823C299.001 823 388.323 779.666 455.63 701.463L448.051 694.939Z" fill="#0A0A0B" mask="url(#path-1-inside-1_3_8278)"/>
<path d="M554.8 396.999L167.802 479.397" stroke="#0A0A0B" stroke-width="11" stroke-miterlimit="10"/>
<path d="M551.601 433.6C574.686 433.6 593.401 414.885 593.401 391.8C593.401 368.714 574.686 350 551.601 350C528.515 350 509.801 368.714 509.801 391.8C509.801 414.885 528.515 433.6 551.601 433.6Z" fill="#008AFF"/>
<circle cx="68.8008" cy="334" r="10" fill="#FFC600"/>
<path d="M3 513.299C3 493.299 12.1001 474.499 28.6001 460.299C45.1001 446.099 67.0001 438.299 90.4001 438.299C113.8 438.299 135.7 446.099 152.2 460.299C168.7 474.499 177.8 493.299 177.8 513.299" stroke="#0A0A0B" stroke-width="5" stroke-miterlimit="10" stroke-linejoin="round"/>
</svg>
