<svg width="18" height="18" viewBox="0 0 18 18" fill="none" xmlns="http://www.w3.org/2000/svg">
<path fill-rule="evenodd" clip-rule="evenodd" d="M0.935614 11.3605C0.614022 8.81018 3.40866 8.26157 5.39932 7.79961C5.39932 7.79961 7.19934 8.99961 8.99931 8.99961C10.7993 8.99961 12.5993 7.79961 12.5993 7.79961C14.594 8.26064 17.4182 8.81532 17.057 11.3807C16.0304 14.8602 12.8114 17.3996 8.99929 17.3996C5.17979 17.3996 1.9557 14.8504 0.935614 11.3605ZM7.2948 13.4165C7.46007 13.5923 7.46007 13.8559 7.2948 14.0316C7.21216 14.1195 7.10886 14.1635 7.00556 14.1635C6.90226 14.1635 6.79896 14.1195 6.71632 14.0316L5.66268 12.9113C5.4974 12.7355 5.4974 12.4719 5.66268 12.2962L6.71632 11.1758C6.8816 11.0001 7.12952 11.0001 7.2948 11.1758C7.46007 11.3516 7.46007 11.6371 7.2948 11.8129L6.53039 12.6257L7.2948 13.4165ZM10.0632 10.5607L8.90625 14.9323C8.86493 15.13 8.69966 15.2619 8.51372 15.2619C8.49306 15.2619 8.45174 15.2619 8.41042 15.2399C8.18316 15.174 8.05921 14.9323 8.12119 14.6907L9.27813 10.3191C9.34011 10.0774 9.56736 9.9456 9.79462 10.0115C10.0012 10.0774 10.1252 10.3191 10.0632 10.5607ZM12.3564 12.9332L11.3028 14.0536C11.2201 14.1415 11.1168 14.1854 11.0135 14.1854C10.9102 14.1854 10.8069 14.1415 10.7243 14.0536C10.559 13.8779 10.559 13.6143 10.7243 13.4385L11.4887 12.6257L10.7243 11.7909C10.559 11.6152 10.559 11.3516 10.7243 11.1758C10.8896 11.0001 11.1375 11.0001 11.3028 11.1758L12.3564 12.3181C12.5217 12.4939 12.5217 12.7575 12.3564 12.9332Z" fill="#62626A"/>
<path d="M9.0022 0.59961C10.9738 0.601182 12.5993 2.21191 12.5993 4.18941C12.5993 6.18828 10.9722 7.79961 8.99931 7.79961C7.02643 7.79961 5.39931 6.18828 5.39931 4.20981C5.39931 2.21094 7.02643 0.599609 8.99931 0.599609" fill="#62626A"/>
</svg>
